{"title":"Buen.Dia.Ramon.2013.LIMITED.720p.BluRay.x264-MELiTE[rarbg]","uid":11766039,"size":5858993620,"categoryP":"video","categoryS":"hd___movies","magnet":"?xt=urn:btih:830f4c50fcbcec7023604170461723355c5c7597&amp;dn=Buen.Dia.Ramon.2013.LIMITED.720p.BluRay.x264-MELiTE%5Brarbg%5D&amp;tr=udp%3A%2F%2Ftracker.openbittorrent.com%3A80&amp;tr=udp%3A%2F%2Fopen.demonii.com%3A1337&amp;tr=udp%3A%2F%2Ftracker.coppersurfer.tk%3A6969&amp;tr=udp%3A%2F%2Fexodus.desync.com%3A6969","seeders":5,"leechers":2,"uploader":"vickey1992","files":3,"time":1426857796,"description":"\n\nMediaInfo\n\nVideo\nID : 1\nFormat : AVC\nFormat/Info : Advanced Video Codec\nFormat profile : &lt;a class=&quot;__cf_email__&quot; href=&quot;/cdn-cgi/l/email-protection&quot; data-cfemail=&quot;0b43626c634b473f253a&quot;&gt;[email&amp;#160;protected]&lt;/a&gt;&lt;script cf-hash='f9e31' type=&quot;text/javascript&quot;&gt;\n/* &lt;![CDATA[ */!function(){try{var t=&quot;currentScript&quot;in document?document.currentScript:function(){for(var t=document.getElementsByTagName(&quot;script&quot;),e=t.length;e--;)if(t[e].getAttribute(&quot;cf-hash&quot;))return t[e]}();if(t&amp;&amp;t.previousSibling){var e,r,n,i,c=t.previousSibling,a=c.getAttribute(&quot;data-cfemail&quot;);if(a){for(e=&quot;&quot;,r=parseInt(a.substr(0,2),16),n=2;a.length-n;n+=2)i=parseInt(a.substr(n,2),16)^r,e+=String.fromCharCode(i);e=document.createTextNode(e),c.parentNode.replaceChild(e,c)}}}catch(u){}}();/* ]]&gt; */&lt;/script&gt;\nFormat settings, CABAC : Yes\nFormat settings, ReFrames : 5 frames\nCodec ID : V_MPEG4/ISO/AVC\nDuration : 2h 0mn\nBit rate : 4 965 Kbps\nWidth : 1 280 pixels\nHeight : 536 pixels\nDisplay aspect ratio : 2.40:1\nFrame rate mode : Constant\nFrame rate : 23.976 fps\nColor space : YUV\nChroma subsampling : 4:2:0\nBit depth : 8 bits\nScan type : Progressive\nBits/(Pixel*Frame) : 0.302\nStream size : 4.08 GiB (75%)\nWriting library : x264 core 146 r2538 121396c\nEncoding settings : cabac=1 / ref=5 / deblock=1:0:0 / analyse=0x3:0x113 / me=umh / subme=8 / psy=1 / psy_rd=1.00:0.00 / mixed_ref=1 / me_range=16 / chroma_me=1 / trellis=1 / 8x8dct=1 / cqm=0 / deadzone=21,11 / fast_pskip=0 / chroma_qp_offset=-2 / threads=9 / lookahead_threads=1 / sliced_threads=0 / nr=0 / decimate=1 / interlaced=0 / bluray_compat=0 / constrained_intra=0 / bframes=3 / b_pyramid=2 / b_adapt=2 / b_bias=0 / direct=3 / weightb=1 / open_gop=0 / weightp=2 / keyint=250 / keyint_min=23 / scenecut=40 / intra_refresh=0 / rc_lookahead=50 / rc=2pass / mbtree=1 / bitrate=4965 / ratetol=1.0 / qcomp=0.60 / qpmin=0 / qpmax=69 / qpstep=4 / cplxblur=20.0 / qblur=0.5 / ip_ratio=1.40 / aq=1:1.00\nLanguage : English\nDefault : Yes\nForced : No\nDURATION : 02:00:42.068000000\nNUMBER_OF_FRAMES : 173636\nNUMBER_OF_BYTES : 4490798281\n_STATISTICS_WRITING_APP : mkvmerge v7.1.0 ('Good Love') 64bit built on Jul 27 2014 13:06:55\n_STATISTICS_WRITING_DATE_UTC : 2015-03-20 05:43:17\n_STATISTICS_TAGS : BPS DURATION NUMBER_OF_FRAMES NUMBER_OF_BYTES\n\nAudio\nID : 2\nFormat : DTS\nFormat/Info : Digital Theater Systems\nMode : 16\nFormat settings, Endianness : Big\nCodec ID : A_DTS\nDuration : 2h 0mn\nBit rate mode : Constant\nBit rate : 1 509 Kbps\nChannel(s) : 6 channels\nChannel positions : Front: L C R, Side: L R, LFE\nSampling rate : 48.0 KHz\nBit depth : 24 bits\nCompression mode : Lossy\nStream size : 1.27 GiB (23%)\nLanguage : Spanish\nDefault : Yes\nForced : No\n\nText\nID : 3\nFormat : UTF-8\nCodec ID : S_TEXT/UTF8\nCodec ID/Info : UTF-8 Plain Text\nLanguage : English\nDefault : Yes\nForced : No\n\nMenu\n00:00:00.000 : en:00:00:00.000\n00:04:02.784 : en:00:04:02.784\n00:08:24.587 : en:00:08:24.587\n00:11:29.147 : en:00:11:29.147\n00:16:08.426 : en:00:16:08.426\n00:19:49.313 : en:00:19:49.313\n00:26:58.659 : en:00:26:58.659\n00:29:01.823 : en:00:29:01.823\n00:32:31.158 : en:00:32:31.158\n00:36:15.799 : en:00:36:15.799\n00:40:06.613 : en:00:40:06.613\n00:42:53.738 : en:00:42:53.738\n00:46:31.455 : en:00:46:31.455\n00:51:49.523 : en:00:51:49.523\n00:56:49.197 : en:00:56:49.197\n00:59:11.923 : en:00:59:11.923\n01:04:47.842 : en:01:04:47.842\n01:08:22.890 : en:01:08:22.890\n01:13:45.171 : en:01:13:45.171\n01:18:14.398 : en:01:18:14.398\n01:20:55.350 : en:01:20:55.350\n01:25:38.925 : en:01:25:38.925\n01:33:53.378 : en:01:33:53.378\n01:37:14.162 : en:01:37:14.162\n01:41:25.746 : en:01:41:25.746\n01:44:15.749 : en:01:44:15.749\n01:47:47.002 : en:01:47:47.002\n01:50:02.304 : en:01:50:02.304\n01:52:22.444 : en:01:52:22.444\n01:55:06.733 : en:01:55:06","torrent":{"xt":"urn:btih:830f4c50fcbcec7023604170461723355c5c7597","amp;dn":"Buen.Dia.Ramon.2013.LIMITED.720p.BluRay.x264-MELiTE%5Brarbg%5D","amp;tr":["udp%3A%2F%2Ftracker.openbittorrent.com%3A80","udp%3A%2F%2Fopen.demonii.com%3A1337","udp%3A%2F%2Ftracker.coppersurfer.tk%3A6969","udp%3A%2F%2Fexodus.desync.com%3A6969"],"infoHash":"830f4c50fcbcec7023604170461723355c5c7597","infoHashBuffer":{"type":"Buffer","data":[131,15,76,80,252,188,236,112,35,96,65,112,70,23,35,53,92,92,117,151]},"announce":[],"urlList":[]}}